<?xml version="1.0" encoding="UTF-8"?>
<svg width="62px" height="60px" viewBox="0 0 62 60" version="1.1" xmlns="http://www.w3.org/2000/svg" xmlns:xlink="http://www.w3.org/1999/xlink">
    <!-- Generator: Sketch 46.1 (44463) - http://www.bohemiancoding.com/sketch -->
    <title>chat_icon_misc</title>
    <desc>Created with Sketch.</desc>
    <defs>
        <filter x="-9.1%" y="-15.0%" width="118.2%" height="130.0%" filterUnits="objectBoundingBox" id="filter-1">
            <feOffset dx="0" dy="0" in="SourceAlpha" result="shadowOffsetOuter1"></feOffset>
            <feGaussianBlur stdDeviation="20" in="shadowOffsetOuter1" result="shadowBlurOuter1"></feGaussianBlur>
            <feColorMatrix values="0 0 0 0 0.0784313725   0 0 0 0 0.0784313725   0 0 0 0 0.2  0 0 0 0.2 0" type="matrix" in="shadowBlurOuter1" result="shadowMatrixOuter1"></feColorMatrix>
            <feMerge>
                <feMergeNode in="shadowMatrixOuter1"></feMergeNode>
                <feMergeNode in="SourceGraphic"></feMergeNode>
            </feMerge>
        </filter>
    </defs>
    <g id="Page-1" stroke="none" stroke-width="1" fill="none" fill-rule="evenodd" fill-opacity="0.4">
        <g id="chat" transform="translate(-260.000000, -40.000000)" fill="#B4B3D0">
            <g id="Group" filter="url(#filter-1)" transform="translate(40.000000, 40.000000)">
                <g id="Group-7" transform="translate(211.000000, 0.000000)">
                    <path d="M48,32 C46.8954305,32 46,31.1045695 46,30 C46,28.8954305 46.8954305,28 48,28 C49.1045695,28 50,28.8954305 50,30 C50,31.1045695 49.1045695,32 48,32 Z M40,32 C38.8954305,32 38,31.1045695 38,30 C38,28.8954305 38.8954305,28 40,28 C41.1045695,28 42,28.8954305 42,30 C42,31.1045695 41.1045695,32 40,32 Z M32,32 C30.8954305,32 30,31.1045695 30,30 C30,28.8954305 30.8954305,28 32,28 C33.1045695,28 34,28.8954305 34,30 C34,31.1045695 33.1045695,32 32,32 Z" id="chat_icon_misc"></path>
                </g>
            </g>
        </g>
    </g>
</svg>