<?xml version="1.0" encoding="UTF-8"?>
<svg width="30px" height="30px" viewBox="0 0 30 30" version="1.1" xmlns="http://www.w3.org/2000/svg" xmlns:xlink="http://www.w3.org/1999/xlink">
    <!-- Generator: Sketch 46.1 (44463) - http://www.bohemiancoding.com/sketch -->
    <title>footer_icon_tw</title>
    <desc>Created with Sketch.</desc>
    <defs></defs>
    <g id="Symbols" stroke="none" stroke-width="1" fill="none" fill-rule="evenodd" fill-opacity="0.25">
        <g id="footer" transform="translate(-1130.000000, -72.000000)" fill="#141433">
            <g id="Group-25">
                <g id="Group-27" transform="translate(45.000000, 40.000000)">
                    <g id="Group-46">
                        <g id="Group-3">
                            <g id="Group-35">
                                <g id="Group-32-Copy-3" transform="translate(1085.000000, 0.000000)">
                                    <path d="M5,32 L25,32 C27.7614237,32 30,34.2385763 30,37 L30,57 C30,59.7614237 27.7614237,62 25,62 L5,62 C2.23857625,62 -1.43817996e-15,59.7614237 -1.77635684e-15,57 L0,37 L0,37 C-3.38176876e-16,34.2385763 2.23857625,32 5,32 L5,32 Z M14.5507516,44.1921879 L14.5822282,44.7112217 L14.0576187,44.6476666 C12.1480401,44.4040384 10.4797819,43.5778213 9.0633363,42.1902002 L8.37085177,41.5016859 L8.19248454,42.0101273 C7.8147657,43.1435277 8.05608607,44.3404833 8.84300031,45.1455154 C9.26268791,45.5904015 9.1682582,45.6539567 8.44429709,45.3891435 C8.19248454,45.3044033 7.97214855,45.2408481 7.95116417,45.2726257 C7.87771884,45.3467734 8.1295314,46.3106934 8.32888301,46.6920243 C8.60167994,47.2216507 9.15776601,47.7406846 9.76631303,48.0478679 L10.2804303,48.291496 L9.67188332,48.3020885 C9.08432068,48.3020885 9.0633363,48.312681 9.12628944,48.5351241 C9.33613324,49.2236384 10.1650162,49.9545228 11.088329,50.2722986 L11.7388447,50.4947417 L11.1722665,50.8337025 C10.3328913,51.3209588 9.34662543,51.5963645 8.36035958,51.6175496 C7.88821103,51.6281421 7.5,51.6705122 7.5,51.7022898 C7.5,51.8082151 8.78004717,52.4013966 9.52499266,52.6344322 C11.7598291,53.3229465 14.4143532,53.0263557 16.4078693,51.8505852 C17.8243149,51.0137755 19.2407605,49.3507487 19.9017685,47.7406846 C20.258503,46.8826898 20.6152374,45.3149958 20.6152374,44.5629263 C20.6152374,44.0756701 20.646714,44.0121149 21.2342766,43.4295259 C21.5805189,43.090565 21.9057768,42.7198266 21.9687299,42.6139013 C22.0736518,42.4126433 22.0631596,42.4126433 21.528058,42.5927163 C20.6362218,42.9104921 20.5103155,42.868122 20.9509875,42.3914582 C21.2762454,42.0524974 21.6644564,41.4381308 21.6644564,41.2580578 C21.6644564,41.2262802 21.5070736,41.2792429 21.3287063,41.3745756 C21.1398469,41.4805009 20.7201593,41.6393888 20.4053936,41.7347215 L19.8388154,41.9147945 L19.3246981,41.5652411 C19.0414089,41.3745756 18.6427057,41.1627251 18.4328619,41.0991699 C17.8977602,40.9508745 17.0793694,40.9720596 16.5967287,41.14154 C15.2852049,41.6182037 14.4563219,42.8469369 14.5507516,44.1921879 Z" id="footer_icon_tw"></path>
                                </g>
                            </g>
                        </g>
                    </g>
                </g>
            </g>
        </g>
    </g>
</svg>