<?xml version="1.0" encoding="UTF-8"?>
<svg width="30px" height="30px" viewBox="0 0 30 30" version="1.1" xmlns="http://www.w3.org/2000/svg" xmlns:xlink="http://www.w3.org/1999/xlink">
    <!-- Generator: Sketch 46.1 (44463) - http://www.bohemiancoding.com/sketch -->
    <title>footer_icon_you</title>
    <desc>Created with Sketch.</desc>
    <defs></defs>
    <g id="Symbols" stroke="none" stroke-width="1" fill="none" fill-rule="evenodd" fill-opacity="0.25">
        <g id="footer" transform="translate(-1220.000000, -72.000000)" fill="#141433">
            <g id="Group-25">
                <g id="Group-27" transform="translate(45.000000, 40.000000)">
                    <g id="Group-46">
                        <g id="Group-3">
                            <g id="Group-35">
                                <g id="Group-32-Copy-3" transform="translate(1085.000000, 0.000000)">
                                    <path d="M95,32 L115,32 C117.761424,32 120,34.2385763 120,37 L120,57 C120,59.7614237 117.761424,62 115,62 L95,62 C92.2385763,62 90,59.7614237 90,57 L90,37 L90,37 C90,34.2385763 92.2385763,32 95,32 L95,32 Z M112.204,42.8951882 C111.5955,42.2153997 110.9135,42.2122006 110.601,42.1727463 C108.362,42 105.0035,42 105.0035,42 C104.9965,42 101.638,42 99.399,42.1727463 C99.086,42.2122006 98.4045,42.2153997 97.7955,42.8951882 C97.316,43.4128938 97.16,44.588528 97.16,44.588528 C97.16,44.588528 97,45.9694317 97,47.3498023 L97,48.6443329 C97,50.0252366 97.16,50.4056071 97.16,50.4056071 C97.16,50.4056071 97.316,51.5812414 97.7955,52.098947 C98.4045,52.7787355 99.204,52.7574088 99.56,52.8283201 C100.84,52.9594793 105,53 105,53 C105,53 108.362,52.9946683 110.601,52.8219221 C110.9135,52.7819345 111.5955,52.7787355 112.204,52.098947 C112.6835,51.5812414 112.84,50.4056071 112.84,50.4056071 C112.84,50.4056071 113,50.0252366 113,48.6443329 L113,47.3498023 C113,45.9694317 112.84,44.588528 112.84,44.588528 C112.84,44.588528 112.6835,43.4128938 112.204,42.8951882 Z M103.000463,50 L103,45 L107,47.5086197 L103.000463,50 Z" id="footer_icon_you"></path>
                                </g>
                            </g>
                        </g>
                    </g>
                </g>
            </g>
        </g>
    </g>
</svg>