<?xml version="1.0" encoding="UTF-8"?>
<svg width="30px" height="30px" viewBox="0 0 30 30" version="1.1" xmlns="http://www.w3.org/2000/svg" xmlns:xlink="http://www.w3.org/1999/xlink">
    <!-- Generator: Sketch 46.1 (44463) - http://www.bohemiancoding.com/sketch -->
    <title>footer_icon_vk</title>
    <desc>Created with Sketch.</desc>
    <defs></defs>
    <g id="Symbols" stroke="none" stroke-width="1" fill="none" fill-rule="evenodd" fill-opacity="0.25">
        <g id="footer" transform="translate(-1175.000000, -72.000000)" fill="#141433">
            <g id="Group-25">
                <g id="Group-27" transform="translate(45.000000, 40.000000)">
                    <g id="Group-46">
                        <g id="Group-3">
                            <g id="Group-35">
                                <g id="Group-32-Copy-3" transform="translate(1085.000000, 0.000000)">
                                    <path d="M50,32 L70,32 C72.7614237,32 75,34.2385763 75,37 L75,57 C75,59.7614237 72.7614237,62 70,62 L50,62 C47.2385763,62 45,59.7614237 45,57 L45,37 L45,37 C45,34.2385763 47.2385763,32 50,32 L50,32 Z M60.784664,51.4225501 C60.784664,51.4225501 61.0734289,51.3910556 61.2213328,51.2351193 C61.3567158,51.0922418 61.3520204,50.822618 61.3520204,50.822618 C61.3520204,50.822618 61.3340216,49.5636058 61.9295502,49.3777113 C62.5164706,49.1948896 63.2700765,50.595243 64.0698534,51.1337224 C64.6739902,51.5408465 65.1325707,51.4517401 65.1325707,51.4517401 L67.2697437,51.4225501 C67.2697437,51.4225501 68.3872402,51.3549521 67.8574467,50.4923098 C67.8136233,50.4216391 67.5483353,49.8539698 66.2688487,48.6879047 C64.9283224,47.4673004 65.1083113,47.6647172 66.7219513,45.5530487 C67.7048474,44.2671509 68.0976928,43.4820926 67.9748308,43.1464072 C67.8582293,42.8253168 67.1351433,42.9105824 67.1351433,42.9105824 L64.729552,42.9251775 C64.729552,42.9251775 64.5511282,42.9013645 64.4188754,42.9789486 C64.2897529,43.0549963 64.2060189,43.232441 64.2060189,43.232441 C64.2060189,43.232441 63.8256945,44.2272066 63.3178127,45.0737176 C62.2464872,46.8589187 61.8184266,46.9534022 61.643133,46.8427873 C61.2354189,46.5839178 61.3371518,45.8042366 61.3371518,45.2503941 C61.3371518,43.5197324 61.6047875,42.7984313 60.816749,42.6117687 C60.5553738,42.5495478 60.3628638,42.5088354 59.6937745,42.501922 C58.8353056,42.4934722 58.1090893,42.5049946 57.6974624,42.7024114 C57.4235662,42.8337666 57.2122749,43.1272032 57.3413974,43.1441027 C57.5002572,43.164843 57.8602351,43.2393544 58.0511798,43.4943831 C58.2976864,43.8239232 58.2890783,44.562892 58.2890783,44.562892 C58.2890783,44.562892 58.4307217,46.6000491 57.9580551,46.8527734 C57.634075,47.0263773 57.1895806,46.6722561 56.2340741,45.0522092 C55.7449738,44.2225977 55.3756052,43.3054161 55.3756052,43.3054161 C55.3756052,43.3054161 55.3043921,43.1341166 55.1768348,43.0419376 C55.0226703,42.9305546 54.8074662,42.8959874 54.8074662,42.8959874 L52.5216066,42.9105824 C52.5216066,42.9105824 52.1780625,42.9198003 52.0520703,43.0665187 C51.9401641,43.1963375 52.0434621,43.4659612 52.0434621,43.4659612 C52.0434621,43.4659612 53.8331782,47.576379 55.8600102,49.6481032 C57.7185916,51.5469918 59.828375,51.4225501 59.828375,51.4225501 L60.784664,51.4225501 Z" id="footer_icon_vk"></path>
                                </g>
                            </g>
                        </g>
                    </g>
                </g>
            </g>
        </g>
    </g>
</svg>