<?xml version="1.0" encoding="UTF-8"?>
<svg width="15px" height="15px" viewBox="0 0 15 15" version="1.1" xmlns="http://www.w3.org/2000/svg" xmlns:xlink="http://www.w3.org/1999/xlink">
    <!-- Generator: Sketch 46.1 (44463) - http://www.bohemiancoding.com/sketch -->
    <title>icon_search</title>
    <desc>Created with Sketch.</desc>
    <defs></defs>
    <g id="Symbols" stroke="none" stroke-width="1" fill="none" fill-rule="evenodd">
        <g id="header" transform="translate(-871.000000, -23.000000)" fill-rule="nonzero" fill="#3A3958">
            <g id="Group-31">
                <g id="Group-4" transform="translate(849.000000, 1.000000)">
                    <g id="Group-26" transform="translate(22.000000, 19.000000)">
                        <path d="M9.74765667,11.801423 C10.8715181,10.2244469 10.6999663,8.04311209 9.3137085,6.65685425 C7.75161133,5.09475708 5.21895142,5.09475708 3.65685425,6.65685425 C2.09475708,8.21895142 2.09475708,10.7516113 3.65685425,12.3137085 C5.04311209,13.6999663 7.22444691,13.8715181 8.80142305,12.7476567 L9.35391382,12.3539138 L9.74765667,11.801423 Z M14.263456,15.8492424 L12.8492424,17.263456 L9.9621548,14.3763684 C7.61895041,16.0462967 4.34486652,15.8301479 2.24264069,13.7279221 C-0.100505063,11.3847763 -0.100505063,7.58578644 2.24264069,5.24264069 C4.58578644,2.89949494 8.38477631,2.89949494 10.7279221,5.24264069 C12.8301479,7.34486652 13.0462967,10.6189504 11.3763684,12.9621548 L14.263456,15.8492424 Z" id="icon_search"></path>
                    </g>
                </g>
            </g>
        </g>
    </g>
</svg>