<?xml version="1.0" encoding="UTF-8"?>
<svg width="18px" height="22px" viewBox="0 0 18 22" version="1.1" xmlns="http://www.w3.org/2000/svg" xmlns:xlink="http://www.w3.org/1999/xlink">
    <!-- Generator: Sketch 46.1 (44463) - http://www.bohemiancoding.com/sketch -->
    <title>icon_raids</title>
    <desc>Created with Sketch.</desc>
    <defs></defs>
    <g id="Page-1" stroke="none" stroke-width="1" fill="none" fill-rule="evenodd">
        <g id="wow_raids_chat" transform="translate(-32.000000, -246.000000)" fill-rule="nonzero" fill="#643FFF">
            <g id="Group-18-Copy-2" transform="translate(0.000000, -1.000000)">
                <g id="Group-25" transform="translate(0.000000, 60.000000)">
                    <g id="Group-6" transform="translate(0.000000, 171.000000)">
                        <g id="Group-2" transform="translate(32.000000, 16.000000)">
                            <path d="M3,17 L2.89758866,16.9981821 C1.38153434,16.9442742 0.169048105,15.6982568 0.169048105,14.1690481 C0.169048105,13.6559552 0.308494662,13.1525089 0.572478777,12.7125354 L1,12 C-1,4.04117839 1.66666667,0.0411783854 9,-6.31535026e-13 C16.3333333,-0.0411783854 19,3.95882161 17,12 L17.4275212,12.7125354 C18.231931,14.0532183 17.7971957,15.7921596 16.4565127,16.5965693 C16.0451516,16.843386 15.5783049,16.9813363 15.0999654,16.9982349 L15,17 L15,17.2793084 C14.9430739,20.4114622 12.9429961,21.9775391 8.99976635,21.9775391 C5.05714205,21.9775391 3.05721994,20.411943 3,17.280751 L3,17 Z M9.01123029,1.99996847 C3.05021257,2.03344098 1.23999447,4.74876814 2.93969322,11.5125677 L3.14194186,12.3173982 L2.28746463,13.7415269 C2.209979,13.8706696 2.16904811,14.0184431 2.16904811,14.1690481 C2.16904811,14.6279702 2.54107794,15 3,15 L5.03581774,15 L4.99968496,17.0354971 C4.96242804,19.1343217 5.97881522,19.9775391 8.99976635,19.9775391 C12.0207816,19.9775391 13.0373731,19.1342179 13.0003117,17.0353094 L12.9643733,15 L15,15 C15.150605,15 15.2983785,14.9590691 15.4275212,14.8815835 C15.8210436,14.64547 15.9486488,14.1350493 15.7125354,13.7415269 L14.8595182,12.3198317 L15.0591318,11.5172677 C16.7614191,4.67306974 14.9570933,1.96658106 9.01123029,1.99996847 Z M9.41602515,14.6240377 L10.4817666,16.2226499 C10.6349428,16.4524142 10.5728559,16.7628489 10.3430916,16.9160251 C10.2609578,16.970781 10.1644539,17 10.0657415,17 L7.93425855,17 C7.65811617,17 7.43425855,16.7761424 7.43425855,16.5 C7.43425855,16.4012875 7.46347756,16.3047837 7.5182334,16.2226499 L8.58397485,14.6240377 C8.73715108,14.3942734 9.04758575,14.3321864 9.2773501,14.4853627 C9.33227624,14.5219801 9.37940772,14.5691116 9.41602515,14.6240377 Z M5.61690417,10.404226 L7.24253563,10.8106339 L7.24253563,10.8106339 C7.68770263,10.9219257 8,11.3219088 8,11.7807764 L8,13 L8,13 C8,13.5522847 7.55228475,14 7,14 L5.78077641,14 C5.32190876,14 4.92192566,13.6877026 4.81063391,13.2425356 L4.40422604,11.6169042 L4.40422604,11.6169042 C4.27027731,11.0811093 4.59603801,10.5381748 5.13183292,10.404226 C5.29107292,10.364416 5.45766417,10.364416 5.61690417,10.404226 Z M12.3830958,10.404226 C12.5423358,10.364416 12.7089271,10.364416 12.8681671,10.404226 C13.403962,10.5381748 13.7297227,11.0811093 13.595774,11.6169042 L13.595774,11.6169042 L13.1893661,13.2425356 C13.0780743,13.6877026 12.6780912,14 12.2192236,14 L11,14 C10.4477153,14 10,13.5522847 10,13 L10,13 L10,11.7807764 C10,11.3219088 10.3122974,10.9219257 10.7574644,10.8106339 L12.3830958,10.404226 Z" id="icon_raids"></path>
                        </g>
                    </g>
                </g>
            </g>
        </g>
    </g>
</svg>