<?xml version="1.0" encoding="UTF-8"?>
<svg width="22px" height="22px" viewBox="0 0 22 22" version="1.1" xmlns="http://www.w3.org/2000/svg" xmlns:xlink="http://www.w3.org/1999/xlink">
    <!-- Generator: Sketch 46.1 (44463) - http://www.bohemiancoding.com/sketch -->
    <title>icon_quests</title>
    <desc>Created with Sketch.</desc>
    <defs></defs>
    <g id="Page-1" stroke="none" stroke-width="1" fill="none" fill-rule="evenodd">
        <g id="wow_raids_chat" transform="translate(-30.000000, -638.000000)" fill-rule="nonzero" fill="#CDCFE2">
            <g id="Group-18-Copy-2" transform="translate(0.000000, -1.000000)">
                <g id="Group-25" transform="translate(0.000000, 60.000000)">
                    <g id="Group-6" transform="translate(0.000000, 171.000000)">
                        <g id="Group-30-Copy-2" transform="translate(30.000000, 408.000000)">
                            <path d="M11,22 C4.92486775,22 0,17.0751322 0,11 C0,4.92486775 4.92486775,0 11,0 C17.0751322,0 22,4.92486775 22,11 C22,17.0751322 17.0751322,22 11,22 Z M11,20 C15.9705627,20 20,15.9705627 20,11 C20,6.02943725 15.9705627,2 11,2 C6.02943725,2 2,6.02943725 2,11 C2,15.9705627 6.02943725,20 11,20 Z M11,3.5 L11,3.5 C11.988637,3.5 12.7900856,4.30144862 12.7900856,5.29008559 C12.7900856,5.35613107 12.7864305,5.42212594 12.7791369,5.48776747 L12.0988409,11.6104315 C12.0425706,12.1168642 11.6145064,12.5 11.1049572,12.5 L10.8950428,12.5 L10.8950428,12.5 C10.3854936,12.5 9.95742936,12.1168642 9.90115906,11.6104315 L9.22086305,5.48776747 C9.11168636,4.50517727 9.81972791,3.62012533 10.8023181,3.51094864 C10.8679596,3.50365514 10.9339545,3.5 11,3.5 L11,3.5 Z M11,14 C12.1045695,14 13,14.8954305 13,16 C13,17.1045695 12.1045695,18 11,18 C9.8954305,18 9,17.1045695 9,16 C9,14.8954305 9.8954305,14 11,14 Z" id="icon_quests"></path>
                        </g>
                    </g>
                </g>
            </g>
        </g>
    </g>
</svg>