<?xml version="1.0" encoding="UTF-8"?>
<svg width="18px" height="18px" viewBox="0 0 18 18" version="1.1" xmlns="http://www.w3.org/2000/svg" xmlns:xlink="http://www.w3.org/1999/xlink">
    <!-- Generator: Sketch 46.1 (44463) - http://www.bohemiancoding.com/sketch -->
    <title>icon_calendar</title>
    <desc>Created with Sketch.</desc>
    <defs></defs>
    <g id="Page-1" stroke="none" stroke-width="1" fill="none" fill-rule="evenodd" fill-opacity="0.4">
        <g id="wow_raids_chat" transform="translate(-1193.000000, -191.000000)" fill-rule="nonzero" fill="#2E2E6F">
            <g id="Group-29" transform="translate(325.000000, 169.000000)">
                <g id="Group-2" transform="translate(26.000000, 0.000000)">
                    <g id="Group-24-Copy-2" transform="translate(681.000000, 0.000000)">
                        <g id="Group-18-Copy" transform="translate(161.000000, 0.000000)">
                            <path d="M3,22 L15,22 C16.6568542,22 18,23.3431458 18,25 L18,37 C18,38.6568542 16.6568542,40 15,40 L3,40 C1.34314575,40 0,38.6568542 0,37 L0,25 C0,23.3431458 1.34314575,22 3,22 Z M3,24 C2.44771525,24 2,24.4477153 2,25 L2,37 C2,37.5522847 2.44771525,38 3,38 L15,38 C15.5522847,38 16,37.5522847 16,37 L16,25 C16,24.4477153 15.5522847,24 15,24 L3,24 Z M2,26 L16,26 L16,28 L2,28 L2,26 Z M4,30 L6,30 L6,32 L4,32 L4,30 Z M8,30 L10,30 L10,32 L8,32 L8,30 Z M12,30 L14,30 L14,32 L12,32 L12,30 Z M4,34 L6,34 L6,36 L4,36 L4,34 Z M8,34 L10,34 L10,36 L8,36 L8,34 Z M12,34 L14,34 L14,36 L12,36 L12,34 Z" id="icon_calendar"></path>
                        </g>
                    </g>
                </g>
            </g>
        </g>
    </g>
</svg>