<?xml version="1.0" encoding="UTF-8"?>
<svg width="20px" height="24px" viewBox="0 0 20 24" version="1.1" xmlns="http://www.w3.org/2000/svg" xmlns:xlink="http://www.w3.org/1999/xlink">
    <!-- Generator: Sketch 46.1 (44463) - http://www.bohemiancoding.com/sketch -->
    <title>icon_offers</title>
    <desc>Created with Sketch.</desc>
    <defs></defs>
    <g id="Symbols" stroke="none" stroke-width="1" fill="none" fill-rule="evenodd" opacity="0.4">
        <g id="header" transform="translate(-1293.000000, -19.000000)" fill-rule="nonzero" fill="#3A3958">
            <g id="Group-31">
                <g id="Group-24" transform="translate(1247.000000, 19.000000)">
                    <path d="M51,2 C51,0.8954305 51.8954305,2.02906125e-16 53,0 L59,0 C60.1045695,-2.02906125e-16 61,0.8954305 61,2 L64,2 C65.1045695,2 66,2.8954305 66,4 L66,22 C66,23.1045695 65.1045695,24 64,24 L48,24 C46.8954305,24 46,23.1045695 46,22 L46,4 C46,2.8954305 46.8954305,2 48,2 L51,2 Z M51,4 L48,4 L48,22 L64,22 L64,4 L61,4 C61,5.1045695 60.1045695,6 59,6 L53,6 C51.8954305,6 51,5.1045695 51,4 Z M53,2 L53,4 L59,4 L59,2 L53,2 Z M50,9 L62,9 L62,11 L50,11 L50,9 Z M50,13 L62,13 L62,15 L50,15 L50,13 Z M50,17 L57,17 L57,19 L50,19 L50,17 Z" id="icon_offers"></path>
                </g>
            </g>
        </g>
    </g>
</svg>