<?xml version="1.0" encoding="UTF-8"?>
<svg width="18px" height="18px" viewBox="0 0 18 18" version="1.1" xmlns="http://www.w3.org/2000/svg" xmlns:xlink="http://www.w3.org/1999/xlink">
    <!-- Generator: Sketch 46.1 (44463) - http://www.bohemiancoding.com/sketch -->
    <title>icon_dice</title>
    <desc>Created with Sketch.</desc>
    <defs></defs>
    <g id="Page-1" stroke="none" stroke-width="1" fill="none" fill-rule="evenodd">
        <g id="wow_raids_chat" transform="translate(-1407.000000, -191.000000)" fill-rule="nonzero" fill="#5F40E2">
            <g id="Group-29" transform="translate(325.000000, 169.000000)">
                <g id="Group-20" transform="translate(1082.000000, 22.000000)">
                    <path d="M3,0 L15,0 C16.6568542,0 18,1.34314575 18,3 L18,15 C18,16.6568542 16.6568542,18 15,18 L3,18 C1.34314575,18 0,16.6568542 0,15 L0,3 C0,1.34314575 1.34314575,0 3,0 Z M3,2 C2.44771525,2 2,2.44771525 2,3 L2,15 C2,15.5522847 2.44771525,16 3,16 L15,16 C15.5522847,16 16,15.5522847 16,15 L16,3 C16,2.44771525 15.5522847,2 15,2 L3,2 Z M5,4 L6,4 C6.55228475,4 7,4.44771525 7,5 L7,6 C7,6.55228475 6.55228475,7 6,7 L5,7 C4.44771525,7 4,6.55228475 4,6 L4,5 C4,4.44771525 4.44771525,4 5,4 Z M12,4 L13,4 C13.5522847,4 14,4.44771525 14,5 L14,6 C14,6.55228475 13.5522847,7 13,7 L12,7 C11.4477153,7 11,6.55228475 11,6 L11,5 C11,4.44771525 11.4477153,4 12,4 Z M5,11 L6,11 C6.55228475,11 7,11.4477153 7,12 L7,13 C7,13.5522847 6.55228475,14 6,14 L5,14 C4.44771525,14 4,13.5522847 4,13 L4,12 C4,11.4477153 4.44771525,11 5,11 Z M12,11 L13,11 C13.5522847,11 14,11.4477153 14,12 L14,13 C14,13.5522847 13.5522847,14 13,14 L12,14 C11.4477153,14 11,13.5522847 11,13 L11,12 C11,11.4477153 11.4477153,11 12,11 Z" id="icon_dice"></path>
                </g>
            </g>
        </g>
    </g>
</svg>