<?xml version="1.0" encoding="UTF-8"?>
<svg width="28px" height="17px" viewBox="0 0 28 17" version="1.1" xmlns="http://www.w3.org/2000/svg" xmlns:xlink="http://www.w3.org/1999/xlink">
    <!-- Generator: Sketch 46.1 (44463) - http://www.bohemiancoding.com/sketch -->
    <title>icon_battlegrounds</title>
    <desc>Created with Sketch.</desc>
    <defs></defs>
    <g id="Page-1" stroke="none" stroke-width="1" fill="none" fill-rule="evenodd">
        <g id="wow_raids_chat" transform="translate(-27.000000, -473.000000)" fill-rule="nonzero" fill="#CDCFE2">
            <g id="Group-18-Copy-2" transform="translate(0.000000, -1.000000)">
                <g id="Group-25" transform="translate(0.000000, 60.000000)">
                    <g id="Group-6" transform="translate(0.000000, 171.000000)">
                        <g id="Group-30-Copy-3" transform="translate(27.000000, 243.000000)">
                            <path d="M21.1839442,8.69468291 L21.2497945,8.76494729 C21.9282857,9.48891976 22.7723467,10.0374089 23.7095061,10.3633212 L23.9252289,10.4383423 L25.5510228,7.10497076 C24.0069622,6.65782808 22.6334198,5.74542289 21.6212519,4.48658978 L21.4993966,4.33503836 C20.9236256,3.618952 20.1271883,3.11339493 19.2341501,2.89712047 L18.7586752,2.78197079 L17.0734144,6.23726761 C18.6437845,6.65472087 20.0688597,7.50485103 21.1839442,8.69468291 Z M10.1670488,2.78197079 L9.69157394,2.89712047 C8.79853569,3.11339493 8.00209841,3.618952 7.42632738,4.33503836 L7.30447209,4.48658978 C6.29230422,5.74542287 4.91876186,6.65782804 3.37470163,7.10497151 L5.00049517,10.4383423 L5.21621795,10.3633212 C6.15337733,10.0374089 6.99743828,9.48891976 7.67592955,8.76494729 L7.7417798,8.69468291 C8.85686438,7.50485103 10.2819395,6.65472087 11.8523097,6.23726761 L10.1670488,2.78197079 Z M13.1154889,9.78987336 L13.3502601,9.30852106 L12.7508903,8.079631 C12.304127,8.17487439 11.9278791,8.29078582 11.5655288,8.43804948 C10.661555,8.80878013 9.86085298,9.35832484 9.20108845,10.0623153 L9.1352382,10.1325796 C8.23542019,11.092715 7.11602297,11.8201236 5.87315821,12.2523499 L4.81921084,12.6188771 C4.34097896,12.78519 3.81390523,12.5678164 3.59194666,12.1127339 L1.02892501,6.85776076 C0.994754174,6.78770017 0.968892218,6.71388449 0.951865888,6.63781718 C0.831231677,6.09886836 1.17034267,5.56417066 1.70929149,5.44353645 L2.46930686,5.27342038 C3.76107773,4.9842802 4.91634313,4.26497281 5.7458204,3.23335201 L5.86767569,3.0818006 C6.71996548,2.02180787 7.89889829,1.27345287 9.2208255,0.953310835 L10.477923,0.648869145 C10.9343589,0.538330287 11.4062189,0.760301931 11.6120913,1.18240282 L13.3502601,4.74617699 L14.0352462,6.15060673 L14.462862,7.02734903 L14.8904778,6.15060673 L15.575464,4.74617699 L17.3136328,1.18240282 C17.5195051,0.760301931 17.9913651,0.538330287 18.447801,0.648869145 L19.7048985,0.953310835 C21.0268257,1.27345287 22.2057586,2.02180787 23.0580483,3.0818006 L23.1799036,3.23335201 C24.0093809,4.26497281 25.1646463,4.9842802 26.4564172,5.27342038 L27.2164325,5.44353645 C27.7553814,5.56417066 28.0944924,6.09886836 27.9738581,6.63781718 C27.9568318,6.71388449 27.9309699,6.78770017 27.896799,6.85776076 L25.3337774,12.1127339 C25.1118188,12.5678164 24.5847451,12.78519 24.1065132,12.6188771 L23.0525658,12.2523499 C21.8097011,11.8201236 20.6903038,11.092715 19.7904858,10.1325796 L19.7246356,10.0623153 C19.064871,9.35832484 18.264169,8.80878013 17.3800677,8.44616308 C16.997845,8.29078582 16.6215971,8.17487439 16.235396,8.09254201 L15.575464,9.30852106 L15.8102352,9.78987336 L15.9512134,10.0789216 L18.273484,14.8402819 C18.5155897,15.3366721 18.3094513,15.9353414 17.8130611,16.1774471 C17.3166708,16.4195528 16.7180016,16.2134144 16.4758959,15.7170242 L15.575464,13.8708651 L14.8904778,12.4664354 L14.462862,11.5896931 L14.0352462,12.4664354 L13.3502601,13.8708651 L12.4498281,15.7170242 C12.2077224,16.2134144 11.6090532,16.4195528 11.112663,16.1774471 C10.6162727,15.9353414 10.4101344,15.3366721 10.6522401,14.8402819 L12.9745106,10.0789216 L13.1154889,9.78987336 Z" id="icon_battlegrounds"></path>
                        </g>
                    </g>
                </g>
            </g>
        </g>
    </g>
</svg>