<?xml version="1.0" encoding="UTF-8"?>
<svg width="18px" height="22px" viewBox="0 0 18 22" version="1.1" xmlns="http://www.w3.org/2000/svg" xmlns:xlink="http://www.w3.org/1999/xlink">
    <!-- Generator: Sketch 46.1 (44463) - http://www.bohemiancoding.com/sketch -->
    <title>icon_arena</title>
    <desc>Created with Sketch.</desc>
    <defs></defs>
    <g id="Page-1" stroke="none" stroke-width="1" fill="none" fill-rule="evenodd">
        <g id="wow_raids_chat" transform="translate(-32.000000, -582.000000)" fill-rule="nonzero" fill="#CDCFE2">
            <g id="Group-18-Copy-2" transform="translate(0.000000, -1.000000)">
                <g id="Group-25" transform="translate(0.000000, 60.000000)">
                    <g id="Group-6" transform="translate(0.000000, 171.000000)">
                        <g id="Group-30-Copy-2" transform="translate(32.000000, 352.000000)">
                            <path d="M17,18.998027 L16.9024939,19.2023412 C16.0933135,20.8978971 14.0292039,22 12.0266113,22 L10,22 L10,14.4191968 L13,12.707771 L13,11.1914713 L10.5549415,11.6220129 L9,13.6366796 L7.44505846,11.6220129 L5,11.1914713 L5,12.707771 L8,14.4191968 L8,22 L6.03381348,22 C4.05599307,22 1.93710102,20.9440623 1.10896435,19.3184947 L1,19.1046062 L1,17.11761 L0,15.9754625 L0,10 C-6.66133815e-16,9.71446213 0.0171486998,9.43081789 0.0511663559,9.15016562 C0.0673652757,7.7421768 0.605028623,6.53022764 1.50920507,5.51830627 C2.10786108,4.84831224 2.71802448,4.39660056 3.44987517,3.96593361 C3.96015613,3.66565221 4.86446394,3.4004151 6.23669113,3.12764896 L7.27924078,0 L10.7207592,1.11022302e-16 L11.7657503,3.1349732 C13.1647488,3.42787193 14.0661432,3.69106445 14.5525508,3.96754087 C15.2878203,4.38547169 15.896876,4.82416047 16.5020257,5.49385767 C17.4223923,6.51239402 17.9606735,7.74642667 17.9534409,9.1890871 C17.9844001,9.45704033 18,9.72766183 18,10 L18,16.1486993 L17,17.1542829 L17,18.998027 Z M12,20 C13.2250588,20 14.4753283,19.373525 15,18.5197683 L15,16.3291155 L16,15.323532 L16,10 C16,9.78733424 15.9867801,9.57656517 15.9605999,9.36842935 L15.9529352,9.22610915 C15.9692083,8.29738234 15.6330617,7.51529546 15.0181091,6.83474971 C14.585353,6.35583429 14.1300976,6.02792433 13.5642387,5.70628734 C13.2721792,5.54027926 12.3132464,5.27787221 10.8067507,4.98114969 L10.2354491,4.86862494 L9.27924078,2 L8.72075922,2 L7.76183163,4.87678276 L7.18067942,4.98354204 C5.71184352,5.2533713 4.77031549,5.50949701 4.46420682,5.68963059 C3.00723775,6.54700277 2.05078953,7.61742482 2.05078953,9.21576338 L2.04237646,9.34520587 C2.01422248,9.56087786 2,9.77941725 2,10 L2,15.223641 L3,16.3657884 L3,18.5945707 C3.53512691,19.3854876 4.81734536,19.9885135 6.00000011,19.9998378 L6,15.5808032 L3.75672811,14.3010721 C3.28883886,14.0341528 3,13.5368434 3,12.9981726 L3,10.5957356 C3,9.76730852 3.67157288,9.09573565 4.5,9.09573565 C4.58720501,9.09573565 4.67424391,9.10334033 4.76012761,9.11846329 L8.55494154,9.78667851 L9,10.3633204 L9.44505846,9.78667851 L13.2398724,9.11846329 C14.0557474,8.97479877 14.8336078,9.51973304 14.9772724,10.335608 C14.9923953,10.4214917 15,10.5085306 15,10.5957356 L15,12.9981726 C15,13.5368434 14.7111611,14.0341528 14.2432719,14.3010721 L12,15.5808032 L12,20 Z" id="icon_arena"></path>
                        </g>
                    </g>
                </g>
            </g>
        </g>
    </g>
</svg>