<?xml version="1.0" encoding="UTF-8"?>
<svg width="22px" height="22px" viewBox="0 0 22 22" version="1.1" xmlns="http://www.w3.org/2000/svg" xmlns:xlink="http://www.w3.org/1999/xlink">
    <!-- Generator: Sketch 46.1 (44463) - http://www.bohemiancoding.com/sketch -->
    <title>icon_items</title>
    <desc>Created with Sketch.</desc>
    <defs></defs>
    <g id="Page-1" stroke="none" stroke-width="1" fill="none" fill-rule="evenodd">
        <g id="wow_raids_chat" transform="translate(-30.000000, -694.000000)" fill-rule="nonzero" fill="#CDCFE2">
            <g id="Group-18-Copy-2" transform="translate(0.000000, -1.000000)">
                <g id="Group-25" transform="translate(0.000000, 60.000000)">
                    <g id="Group-6" transform="translate(0.000000, 171.000000)">
                        <g id="Group-30-Copy-2" transform="translate(30.000000, 464.000000)">
                            <path d="M14.9999963,12.730883 L14.9999963,13 C14.9999963,13.5522847 14.5522811,14 13.9999963,14 L7.99999632,14 C7.44771157,14 6.99999632,13.5522847 6.99999632,13 L6.99999632,12.7790929 C5.63739451,12.6125965 4.30406243,12.3525494 2.99999963,11.9989529 L2.99999963,20 L18.9999923,20 L18.9999923,11.9557676 C17.6959305,12.2982782 16.3625985,12.55665 14.9999963,12.730883 Z M14.9999963,10.7135161 C16.7189183,10.47899 18.3851686,10.1012827 19.9999947,9.58065555 L19.9999919,2 L1.99999926,2 L2,9.60488438 C3.61466439,10.1511972 5.28075244,10.5373576 6.99999632,10.7631151 L6.99999632,10 C6.99999632,8.8954305 7.89542682,8 8.99999632,8 L12.9999963,8 C14.1045658,8 14.9999963,8.8954305 14.9999963,10 L14.9999963,10.7135161 Z M20.9999923,11.3128612 L20.9999923,20 C20.9999923,21.1045695 20.1045618,22 18.9999923,22 L2.99999963,22 C1.89543013,22 0.999999632,21.1045695 0.999999632,20 L0.999999632,11.3370837 C0.389726589,10.9849464 -1.18339005e-16,10.3289323 4.4408921e-16,9.60488438 L4.4408921e-16,2 C2.22044687e-16,0.8954305 0.895430171,4.4408921e-16 1.99999926,0 L19.9999926,0 C21.1045617,1.77635684e-15 21.9999919,0.8954305 21.9999919,2 L22,9.58064777 C22,10.3053964 21.6096737,10.9610539 20.9999923,11.3128612 Z M12.9999963,12 L12.9999963,10 L8.99999632,10 L8.99999632,12 L12.9999963,12 Z" id="icon_items"></path>
                        </g>
                    </g>
                </g>
            </g>
        </g>
    </g>
</svg>