<?xml version="1.0" encoding="UTF-8"?>
<svg width="24px" height="24px" viewBox="0 0 24 24" version="1.1" xmlns="http://www.w3.org/2000/svg" xmlns:xlink="http://www.w3.org/1999/xlink">
    <!-- Generator: Sketch 46.1 (44463) - http://www.bohemiancoding.com/sketch -->
    <title>icon_settings</title>
    <desc>Created with Sketch.</desc>
    <defs></defs>
    <g id="Symbols" stroke="none" stroke-width="1" fill="none" fill-rule="evenodd" opacity="0.4">
        <g id="header" transform="translate(-1335.000000, -19.000000)" fill-rule="nonzero" fill="#3A3958">
            <g id="Group-31">
                <g id="Group-24" transform="translate(1247.000000, 19.000000)">
                    <path d="M93.4691137,4.38875067 L92.3887507,5.4691137 L93.1569304,7.77365287 L92.8002904,8.50706136 C92.6624211,8.79058111 92.5414734,9.08214107 92.4381661,9.38040854 L92.1715025,10.1503167 L90,11.236068 L90,12.763932 L92.1715025,13.8496833 L92.4381661,14.6195915 C92.5414734,14.9178589 92.6624211,15.2094189 92.8002904,15.4929386 L93.1569304,16.2263471 L92.3887507,18.5308863 L93.4691137,19.6112493 L95.7736529,18.8430696 L96.5070614,19.1997096 C96.7905811,19.3375789 97.0821411,19.4585266 97.3804085,19.5618339 L98.1503167,19.8284975 L99.236068,22 L100.763932,22 L101.849683,19.8284975 L102.619591,19.5618339 C102.917859,19.4585266 103.209419,19.3375789 103.492939,19.1997096 L104.226347,18.8430696 L106.530886,19.6112493 L107.611249,18.5308863 L106.84307,16.2263471 L107.19971,15.4929386 C107.337579,15.2094189 107.458527,14.9178589 107.561834,14.6195915 L107.828497,13.8496833 L110,12.763932 L110,11.236068 L107.828497,10.1503167 L107.561834,9.38040854 C107.458527,9.08214107 107.337579,8.79058111 107.19971,8.50706136 L106.84307,7.77365287 L107.611249,5.4691137 L106.530886,4.38875067 L104.226347,5.1569304 L103.492939,4.8002904 C103.209419,4.66242115 102.917859,4.54147336 102.619591,4.43816614 L101.849683,4.17150255 L100.763932,2 L99.236068,2 L98.1503167,4.17150255 L97.3804085,4.43816614 C97.0821411,4.54147336 96.7905811,4.66242115 96.5070614,4.8002904 L95.7736529,5.1569304 L93.4691137,4.38875067 Z M96.7258435,2.54831309 L97.7236068,0.552786405 C97.8929988,0.214002376 98.2392619,6.95792983e-17 98.618034,0 L101.381966,0 C101.760738,3.74509912e-16 102.107001,0.214002376 102.276393,0.552786405 L103.274157,2.54831309 C103.649261,2.67823344 104.014232,2.82985374 104.367566,3.00167233 L106.484749,2.29594457 C106.844084,2.17616633 107.240252,2.2696888 107.508084,2.53752109 L109.462479,4.49191616 C109.730311,4.75974845 109.823834,5.15591599 109.704055,5.51525071 L108.998328,7.632434 C109.170146,7.98576849 109.321767,8.35073886 109.451687,8.72584345 L111.447214,9.7236068 C111.785998,9.89299881 112,10.2392619 112,10.618034 L112,13.381966 C112,13.7607381 111.785998,14.1070012 111.447214,14.2763932 L109.451687,15.2741565 C109.321767,15.6492611 109.170146,16.0142315 108.998328,16.367566 L109.704055,18.4847493 C109.823834,18.844084 109.730311,19.2402515 109.462479,19.5080838 L107.508084,21.4624789 C107.240252,21.7303112 106.844084,21.8238337 106.484749,21.7040554 L104.367566,20.9983277 C104.014232,21.1701463 103.649261,21.3217666 103.274157,21.4516869 L102.276393,23.4472136 C102.107001,23.7859976 101.760738,24 101.381966,24 L98.618034,24 C98.2392619,24 97.8929988,23.7859976 97.7236068,23.4472136 L96.7258435,21.4516869 C96.3507389,21.3217666 95.9857685,21.1701463 95.632434,20.9983277 L93.5152507,21.7040554 C93.155916,21.8238337 92.7597485,21.7303112 92.4919162,21.4624789 L90.5375211,19.5080838 C90.2696888,19.2402515 90.1761663,18.844084 90.2959446,18.4847493 L91.0016723,16.367566 C90.8298537,16.0142315 90.6782334,15.6492611 90.5483131,15.2741565 L88.5527864,14.2763932 C88.2140024,14.1070012 88,13.7607381 88,13.381966 L88,10.618034 C88,10.2392619 88.2140024,9.89299881 88.5527864,9.7236068 L90.5483131,8.72584345 C90.6782334,8.35073886 90.8298537,7.98576849 91.0016723,7.632434 L90.2959446,5.51525071 C90.1761663,5.15591599 90.2696888,4.75974845 90.5375211,4.49191616 L92.4919162,2.53752109 C92.7597485,2.2696888 93.155916,2.17616633 93.5152507,2.29594457 L95.632434,3.00167233 C95.9857685,2.82985374 96.3507389,2.67823344 96.7258435,2.54831309 Z M100,16 C102.209139,16 104,14.209139 104,12 C104,9.790861 102.209139,8 100,8 C97.790861,8 96,9.790861 96,12 C96,14.209139 97.790861,16 100,16 Z M100,14 C98.8954305,14 98,13.1045695 98,12 C98,10.8954305 98.8954305,10 100,10 C101.104569,10 102,10.8954305 102,12 C102,13.1045695 101.104569,14 100,14 Z" id="icon_settings"></path>
                </g>
            </g>
        </g>
    </g>
</svg>