<?xml version="1.0" encoding="UTF-8"?>
<svg width="22px" height="22px" viewBox="0 0 22 22" version="1.1" xmlns="http://www.w3.org/2000/svg" xmlns:xlink="http://www.w3.org/1999/xlink">
    <!-- Generator: Sketch 46.1 (44463) - http://www.bohemiancoding.com/sketch -->
    <title>icon_dungeons</title>
    <desc>Created with Sketch.</desc>
    <defs></defs>
    <g id="Page-1" stroke="none" stroke-width="1" fill="none" fill-rule="evenodd">
        <g id="wow_raids_chat" transform="translate(-30.000000, -302.000000)" fill-rule="nonzero" fill="#CDCFE2">
            <g id="Group-18-Copy-2" transform="translate(0.000000, -1.000000)">
                <g id="Group-25" transform="translate(0.000000, 60.000000)">
                    <g id="Group-6" transform="translate(0.000000, 171.000000)">
                        <g id="Group-30-Copy" transform="translate(30.000000, 72.000000)">
                            <path d="M18.0507232,8.3502947 L16.5474338,8.97246769 C15.0716965,9.58323754 13.3761678,8.93073314 12.6906141,7.48821573 L11.0058956,3.9432916 L9.46190405,7.21336666 C8.75449571,8.71161211 6.96646003,9.35271226 5.46821457,8.64530392 C5.26944549,8.55145354 5.08159305,8.43604177 4.90804049,8.30114718 L4.30423581,7.83183698 L2.34734019,20 L7,20 L7,17 C7,14.790861 8.790861,13 11,13 C13.209139,13 15,14.790861 15,17 L15,20 L19.6974174,20 L18.0507232,8.3502947 Z M21.8388659,20.8600406 C21.8454197,20.9064057 21.8487087,20.9531739 21.8487087,21 C21.8487087,21.5522847 21.4009934,22 20.8487087,22 L14,22 C13.4477153,22 13,21.5522847 13,21 L13,17 C13,15.8954305 12.1045695,15 11,15 C9.8954305,15 9,15.8954305 9,17 L9,21 C9,21.5522847 8.55228475,22 8,22 L1.1736701,22 C1.12049005,22 1.06739473,21.9957578 1.01488934,21.9873139 C0.469610945,21.8996217 0.0986640381,21.3864976 0.186356231,20.8412192 L2.59766537,5.84746976 C2.68535756,5.30219137 3.1984816,4.93124446 3.74376,5.01893665 C3.90959655,5.04560665 4.06604359,5.1136195 4.19866263,5.21669831 L6.13540728,6.72204276 C6.19325813,6.76700762 6.25587561,6.80547822 6.32213198,6.83676168 C6.82154713,7.07256446 7.41755902,6.85886441 7.6533618,6.35944925 L10.0986767,1.18042929 C10.3344795,0.681014134 10.9304914,0.467314083 11.4299065,0.703116863 C11.6387404,0.801719414 11.8070091,0.969563998 11.9061385,1.17814834 L14.4969954,6.62973644 C14.7255133,7.11057558 15.2906895,7.32807704 15.782602,7.12448709 L18.4779067,6.00896955 C18.9882124,5.79776708 19.5731104,6.04023819 19.7843129,6.55054395 C19.816477,6.62825861 19.8387081,6.70972062 19.8504798,6.79300042 L21.8388659,20.8600406 Z" id="icon_dungeons"></path>
                        </g>
                    </g>
                </g>
            </g>
        </g>
    </g>
</svg>