<?xml version="1.0" encoding="UTF-8"?>
<svg width="20px" height="22px" viewBox="0 0 20 22" version="1.1" xmlns="http://www.w3.org/2000/svg" xmlns:xlink="http://www.w3.org/1999/xlink">
    <!-- Generator: Sketch 46.1 (44463) - http://www.bohemiancoding.com/sketch -->
    <title>icon_achivaments</title>
    <desc>Created with Sketch.</desc>
    <defs></defs>
    <g id="Page-1" stroke="none" stroke-width="1" fill="none" fill-rule="evenodd">
        <g id="wow_raids_chat" transform="translate(-31.000000, -358.000000)" fill-rule="nonzero" fill="#CDCFE2">
            <g id="Group-18-Copy-2" transform="translate(0.000000, -1.000000)">
                <g id="Group-25" transform="translate(0.000000, 60.000000)">
                    <g id="Group-6" transform="translate(0.000000, 171.000000)">
                        <g id="Group-43" transform="translate(31.000000, 128.000000)">
                            <path d="M1.44408764,0.765709896 C4.46848901,2.26479638 7.3204598,3.00955974 10,3 C12.680479,2.99043691 15.5335095,2.24254808 18.5590914,0.756333532 C19.0548,0.512818513 19.6540542,0.717276402 19.8975572,1.21299097 C19.9649547,1.35019641 20,1.50102693 20,1.65389211 L20,10.8196601 C20,14.6073807 17.8599762,18.0700119 14.472136,19.763932 L10,22 L5.52786405,19.763932 C2.14002376,18.0700119 4.01657567e-15,14.6073807 3.55271368e-15,10.8196601 L0,1.66165505 C3.42266213e-05,1.1093892 0.447734153,0.661689276 1,0.661689276 C1.15406593,0.661689276 1.30604829,0.697288779 1.44408764,0.765709896 Z M2,10.8196601 C2,13.8498366 3.71201901,16.6199415 6.42229124,17.9750776 L10,19.763932 L13.5777088,17.9750776 C16.287981,16.6199415 18,13.8498366 18,10.8196601 L18,3.21232741 C15.2341007,4.38962518 12.5687081,4.9908484 10.0071353,4.99998727 C7.43998239,5.00914605 4.76964611,4.41190676 2,3.22526088 L2,10.8196601 Z M10,15 C7.790861,15 6,13.209139 6,11 C6,8.790861 7.790861,7 10,7 C12.209139,7 14,8.790861 14,11 C14,13.209139 12.209139,15 10,15 Z M10,13 C11.1045695,13 12,12.1045695 12,11 C12,9.8954305 11.1045695,9 10,9 C8.8954305,9 8,9.8954305 8,11 C8,12.1045695 8.8954305,13 10,13 Z" id="icon_achivaments"></path>
                        </g>
                    </g>
                </g>
            </g>
        </g>
    </g>
</svg>