<?xml version="1.0" encoding="UTF-8"?>
<svg width="24px" height="24px" viewBox="0 0 24 24" version="1.1" xmlns="http://www.w3.org/2000/svg" xmlns:xlink="http://www.w3.org/1999/xlink">
    <!-- Generator: Sketch 46.1 (44463) - http://www.bohemiancoding.com/sketch -->
    <title>icon_wow</title>
    <desc>Created with Sketch.</desc>
    <defs></defs>
    <g id="Page-1" stroke="none" stroke-width="1" fill="none" fill-rule="evenodd">
        <g id="wow_raids_chat" transform="translate(-30.000000, -80.000000)" fill="#FFFFFF">
            <g id="Group-18-Copy-2" transform="translate(0.000000, -1.000000)">
                <g id="Group-25" transform="translate(0.000000, 60.000000)">
                    <g id="Group-45" transform="translate(30.000000, 21.000000)">
                        <path d="M5.81556581,1.71428571 L1.71428571,1.71428571 L1.71428571,5.81556581 C0.626023148,7.62163918 0,9.73771182 0,12 C0,14.2622882 0.626023148,16.3783608 1.71428571,18.1844342 L1.71428571,22.2857143 L5.81556581,22.2857143 C7.62163918,23.3739769 9.73771182,24 12,24 C14.2622882,24 16.3783608,23.3739769 18.1844342,22.2857143 L22.2857143,22.2857143 L22.2857143,18.1844342 C23.3739769,16.3783608 24,14.2622882 24,12 C24,9.73771182 23.3739769,7.62163918 22.2857143,5.81556581 L22.2857143,1.71428571 L18.1844342,1.71428571 C16.3783608,0.626023148 14.2622882,0 12,0 C9.73771182,0 7.62163918,0.626023148 5.81556581,1.71428571 Z M12,22.2857143 C6.31935686,22.2857143 1.71428571,17.6806431 1.71428571,12 C1.71428571,6.31935686 6.31935686,1.71428571 12,1.71428571 C17.6806431,1.71428571 22.2857143,6.31935686 22.2857143,12 C22.2857143,17.6806431 17.6806431,22.2857143 12,22.2857143 Z M6,6.00189691 L6.32764412,7.10724629 L8.52394138,16.8789693 L8.30791214,17.9879194 L11.4943432,17.987919 L11.2747137,16.9185745 L11.9984114,14.1750031 L12.8697298,16.9545793 L12.5600874,17.987919 L16.1497735,17.9951204 L15.7087139,16.8231617 L17.3590257,7.36077221 L18,6 L14.875201,6.00189691 L15.0564609,7.10153712 L13.8364605,14.0525865 L11.9372034,6.72199437 L10.1225577,13.922969 L8.59595112,7.06764116 L8.76877452,6.00189691 L6,6.00189691 Z" id="icon_wow"></path>
                    </g>
                </g>
            </g>
        </g>
    </g>
</svg>