<?xml version="1.0" encoding="UTF-8"?>
<svg width="146px" height="27px" viewBox="0 0 146 27" version="1.1" xmlns="http://www.w3.org/2000/svg" xmlns:xlink="http://www.w3.org/1999/xlink">
    <!-- Generator: Sketch 46.1 (44463) - http://www.bohemiancoding.com/sketch -->
    <title>boostcamp copy</title>
    <desc>Created with Sketch.</desc>
    <defs></defs>
    <g id="Page-1" stroke="none" stroke-width="1" fill="none" fill-rule="evenodd">
        <g id="wow_raids_chat" transform="translate(-30.000000, -17.000000)" fill="#FFFFFF">
            <g id="Group-18-Copy-2" transform="translate(0.000000, -1.000000)">
                <g id="Group-21" transform="translate(30.000000, 15.000000)">
                    <path d="M8.40148809,24.6620458 C6.52055792,24.6620458 5.2039068,24.0664179 4.4201859,22.906511 L4.38883706,22.906511 L4.38883706,24.0037202 C4.38883706,24.2231621 4.29479055,24.3172086 4.0753487,24.3172086 L0.313488361,24.3172086 C0.0940465084,24.3172086 0,24.2231621 0,24.0037202 L0,3.31348836 C0,3.09404651 0.0940465084,3 0.313488361,3 L4.0753487,3 C4.29479055,3 4.38883706,3.09404651 4.38883706,3.31348836 L4.38883706,10.5550695 L4.4201859,10.5550695 C5.2039068,9.39516257 6.52055792,8.79953469 8.40148809,8.79953469 C11.0347903,8.79953469 12.7589763,10.0221393 13.5426972,12.4359997 C13.8875344,13.5645578 14.0756274,15.0066042 14.0756274,16.7307902 C14.0756274,18.4549762 13.8875344,19.8970227 13.5426972,21.0255808 C12.7589763,23.4394412 11.0347903,24.6620458 8.40148809,24.6620458 Z M6.99079046,20.9628831 C8.21339507,20.9628831 8.99711597,20.4299529 9.34195317,19.3327436 C9.53004619,18.7371157 9.6240927,17.8593483 9.6240927,16.7307902 C9.6240927,15.6022321 9.53004619,14.7244647 9.34195317,14.1288368 C8.99711597,13.0316276 8.21339507,12.4986974 6.99079046,12.4986974 C5.76818585,12.4986974 5.01581378,13.0316276 4.67097659,14.1288368 C4.48288357,14.7244647 4.38883706,15.6022321 4.38883706,16.7307902 C4.38883706,17.8593483 4.48288357,18.7371157 4.67097659,19.3327436 C5.01581378,20.4299529 5.79953469,20.9628831 6.99079046,20.9628831 Z M16.5870175,20.3986041 C16.2421803,19.3327436 16.0854361,18.110139 16.0854361,16.7307902 C16.0854361,15.3514414 16.2421803,14.1288368 16.5870175,13.0629764 C17.4647849,10.3356277 19.9099942,8.79953469 23.1702731,8.79953469 C26.4305521,8.79953469 28.8757613,10.3356277 29.7535287,13.0629764 C30.0983659,14.1288368 30.2551101,15.3514414 30.2551101,16.7307902 C30.2551101,18.110139 30.0983659,19.3327436 29.7535287,20.3986041 C28.8757613,23.1259528 26.4305521,24.6620458 23.1702731,24.6620458 C19.9099942,24.6620458 17.4647849,23.1259528 16.5870175,20.3986041 Z M25.5214358,19.3327436 C25.7095288,18.7371157 25.8035754,17.8906972 25.8035754,16.7307902 C25.8035754,15.5708833 25.7095288,14.7244647 25.5214358,14.1288368 C25.1765986,13.0316276 24.3928777,12.4986974 23.1702731,12.4986974 C21.9476685,12.4986974 21.1639476,13.0316276 20.8191104,14.1288368 C20.6310174,14.7244647 20.5369709,15.5708833 20.5369709,16.7307902 C20.5369709,17.8906972 20.6310174,18.7371157 20.8191104,19.3327436 C21.1639476,20.4299529 21.9476685,20.9628831 23.1702731,20.9628831 C24.3928777,20.9628831 25.1765986,20.4299529 25.5214358,19.3327436 Z M32.7665002,20.3986041 C32.421663,19.3327436 32.2649188,18.110139 32.2649188,16.7307902 C32.2649188,15.3514414 32.421663,14.1288368 32.7665002,13.0629764 C33.6442676,10.3356277 36.0894768,8.79953469 39.3497558,8.79953469 C42.6100347,8.79953469 45.0552439,10.3356277 45.9330114,13.0629764 C46.2778486,14.1288368 46.4345927,15.3514414 46.4345927,16.7307902 C46.4345927,18.110139 46.2778486,19.3327436 45.9330114,20.3986041 C45.0552439,23.1259528 42.6100347,24.6620458 39.3497558,24.6620458 C36.0894768,24.6620458 33.6442676,23.1259528 32.7665002,20.3986041 Z M41.7009185,19.3327436 C41.8890115,18.7371157 41.983058,17.8906972 41.983058,16.7307902 C41.983058,15.5708833 41.8890115,14.7244647 41.7009185,14.1288368 C41.3560813,13.0316276 40.5723604,12.4986974 39.3497558,12.4986974 C38.1271512,12.4986974 37.3434303,13.0316276 36.9985931,14.1288368 C36.8105,14.7244647 36.7164535,15.5708833 36.7164535,16.7307902 C36.7164535,17.8906972 36.8105,18.7371157 36.9985931,19.3327436 C37.3434303,20.4299529 38.1271512,20.9628831 39.3497558,20.9628831 C40.5723604,20.9628831 41.3560813,20.4299529 41.7009185,19.3327436 Z M55.3724942,24.6620458 C59.635936,24.6620458 62.112494,22.6243714 62.1438429,19.458139 C62.1438429,16.7307902 60.4510057,15.1946973 57.0966802,14.8498601 L55.4351919,14.661767 C53.8050524,14.5050229 53.3348199,14.1601857 53.3348199,13.4078136 C53.3348199,12.561395 53.9617966,12.1538602 55.2470989,12.1538602 C56.7204942,12.1538602 58.0684942,12.561395 59.3537964,13.3764648 C59.5105406,13.4705113 59.6672848,13.4705113 59.7926801,13.3137671 L61.548215,11.1506974 C61.6736103,10.9939532 61.6736103,10.837209 61.5168661,10.6804649 C59.8553778,9.42651141 57.8177035,8.79953469 55.3724942,8.79953469 C51.4538897,8.79953469 49.1340759,10.649116 49.1340759,13.6586043 C49.1340759,16.385953 50.8582618,17.9533948 54.087192,18.298232 L55.7800291,18.4863251 C57.4415174,18.6430692 57.9430988,19.0192553 57.9430988,19.8029762 C57.9430988,20.7747901 57.1593779,21.2450226 55.5919361,21.2450226 C53.9304478,21.2450226 52.3943548,20.6807436 50.9523083,19.5835343 C50.7955642,19.458139 50.63882,19.458139 50.5134246,19.5835343 L48.4757503,21.8719994 C48.3190061,22.0287435 48.3190061,22.1541389 48.4757503,22.3108831 C50.262634,23.8783249 52.5824478,24.6620458 55.3724942,24.6620458 Z M71.3952327,24.5053016 C71.6146746,24.5053016 71.7087211,24.4112551 71.7087211,24.1918132 L71.7087211,21.0882785 C71.7087211,20.8688366 71.6146746,20.7747901 71.3952327,20.7747901 L70.6428607,20.7747901 C69.6396979,20.7747901 69.2635119,20.3986041 69.2635119,19.270046 L69.2635119,12.561395 C69.2635119,12.4359997 69.3262095,12.373302 69.4516049,12.373302 L71.3952327,12.373302 C71.6146746,12.373302 71.7087211,12.2792555 71.7087211,12.0598136 L71.7087211,9.45786025 C71.7087211,9.23841839 71.6146746,9.14437188 71.3952327,9.14437188 L69.4516049,9.14437188 C69.3262095,9.14437188 69.2635119,9.08167421 69.2635119,8.95627887 L69.2635119,4.88093017 C69.2635119,4.66148832 69.1694654,4.56744181 68.9500235,4.56744181 L65.219512,4.56744181 C65.0000701,4.56744181 64.9060236,4.66148832 64.9060236,4.88093017 L64.9060236,8.95627887 C64.9060236,9.08167421 64.843326,9.14437188 64.7179306,9.14437188 L63.7774655,9.14437188 C63.5580237,9.14437188 63.4639772,9.23841839 63.4639772,9.45786025 L63.4639772,12.0598136 C63.4639772,12.2792555 63.5580237,12.373302 63.7774655,12.373302 L64.7179306,12.373302 C64.843326,12.373302 64.9060236,12.4359997 64.9060236,12.561395 L64.9060236,19.458139 C64.9060236,22.9692086 66.2540236,24.5053016 69.7337444,24.5053016 L71.3952327,24.5053016 Z M80.8033668,24.6620458 C83.3112737,24.6620458 85.4116457,23.5334877 86.5402038,21.8093017 C86.6342503,21.6525575 86.6342503,21.4958133 86.4775061,21.370418 L83.7501574,19.5835343 C83.5620643,19.458139 83.4053202,19.4894878 83.2799248,19.646232 C82.6529481,20.5239994 81.8378784,20.9628831 80.8660644,20.9628831 C79.6434598,20.9628831 78.8597389,20.4299529 78.5149017,19.3327436 C78.3268087,18.7998134 78.2327622,17.922046 78.2327622,16.7307902 C78.2327622,15.5395345 78.3268087,14.661767 78.5149017,14.1288368 C78.8597389,13.0316276 79.6434598,12.4986974 80.8660644,12.4986974 C81.8378784,12.4986974 82.6529481,12.9375811 83.2799248,13.8153485 C83.4053202,13.9720927 83.5620643,14.0034415 83.7501574,13.8780461 L86.4775061,12.0911625 C86.6342503,11.9657671 86.6342503,11.809023 86.5402038,11.6522788 C85.4116457,9.92809279 83.3112737,8.79953469 80.8033668,8.79953469 C77.5430878,8.79953469 75.1292274,10.3042788 74.25146,13.0943252 C73.9379716,14.0034415 73.7812275,15.2260461 73.7812275,16.7307902 C73.7812275,18.2355344 73.9379716,19.458139 74.25146,20.3672552 C75.1292274,23.1573016 77.5430878,24.6620458 80.8033668,24.6620458 Z M101.183593,24.3172086 L97.7038727,24.3172086 C97.4844308,24.3172086 97.3903843,24.2231621 97.3903843,24.0037202 L97.3903843,23.0005575 L97.3590355,23.0005575 C96.5126169,24.0977667 95.1019193,24.6620458 93.1896402,24.6620458 C90.3055473,24.6620458 88.1424776,23.0632551 88.1424776,20.022418 C88.1424776,16.7621391 90.556338,15.1319996 94.4435937,15.1319996 L97.1395936,15.1319996 C97.2649889,15.1319996 97.3276866,15.0693019 97.3276866,14.9439066 L97.3276866,14.3796275 C97.3276866,12.9062322 96.5753145,12.3106043 94.2241518,12.3106043 C92.844803,12.3106043 91.7162449,12.6240927 90.8384775,13.2824183 C90.6817334,13.4078136 90.5249892,13.3764648 90.4309427,13.2197206 L89.020245,10.7431625 C88.9261985,10.5550695 88.9575474,10.3983253 89.1142915,10.3042788 C90.5249892,9.30111607 92.4059193,8.79953469 94.7570821,8.79953469 C99.6475005,8.79953469 101.497082,10.4296742 101.497082,14.285581 L101.497082,24.0037202 C101.497082,24.2231621 101.403035,24.3172086 101.183593,24.3172086 Z M94.5062914,21.370418 C96.3872215,21.370418 97.3276866,20.6807436 97.3276866,19.270046 L97.3276866,18.2355344 C97.3276866,18.110139 97.2649889,18.0474413 97.1395936,18.0474413 L95.0078727,18.0474413 C93.2209891,18.0474413 92.3118728,18.6117204 92.3118728,19.7716273 C92.3118728,20.8374878 93.0328961,21.370418 94.5062914,21.370418 Z M127.23796,24.3172086 C127.457401,24.3172086 127.551448,24.2231621 127.551448,24.0037202 L127.551448,14.4423252 C127.551448,11.0253021 125.639169,8.79953469 122.128099,8.79953469 C120.153123,8.79953469 118.585681,9.42651141 117.363076,10.7118137 L117.331727,10.7118137 C116.422611,9.42651141 115.074611,8.79953469 113.256379,8.79953469 C111.469495,8.79953469 110.184193,9.36381374 109.337774,10.5237207 L109.306425,10.5237207 L109.306425,9.45786025 C109.306425,9.23841839 109.212379,9.14437188 108.992937,9.14437188 L105.231077,9.14437188 C105.011635,9.14437188 104.917588,9.23841839 104.917588,9.45786025 L104.917588,24.0037202 C104.917588,24.2231621 105.011635,24.3172086 105.231077,24.3172086 L108.992937,24.3172086 C109.212379,24.3172086 109.306425,24.2231621 109.306425,24.0037202 L109.306425,15.2887438 C109.306425,13.6272555 110.184193,12.5300462 111.688937,12.5300462 C113.22503,12.5300462 114.040099,13.5645578 114.040099,15.2887438 L114.040099,24.0037202 C114.040099,24.2231621 114.134146,24.3172086 114.353588,24.3172086 L118.115448,24.3172086 C118.33489,24.3172086 118.428937,24.2231621 118.428937,24.0037202 L118.428937,15.2887438 C118.428937,13.6272555 119.306704,12.5300462 120.780099,12.5300462 C122.316192,12.5300462 123.162611,13.5645578 123.162611,15.2887438 L123.162611,24.0037202 C123.162611,24.2231621 123.256657,24.3172086 123.476099,24.3172086 L127.23796,24.3172086 Z M135.015954,29.9599991 L131.254094,29.9599991 C131.034652,29.9599991 130.940605,29.8659526 130.940605,29.6465107 L130.940605,9.45786025 C130.940605,9.23841839 131.034652,9.14437188 131.254094,9.14437188 L135.015954,9.14437188 C135.235396,9.14437188 135.329442,9.23841839 135.329442,9.45786025 L135.329442,10.5550695 L135.360791,10.5550695 C136.144512,9.39516257 137.461163,8.79953469 139.342093,8.79953469 C141.975396,8.79953469 143.699582,10.0221393 144.483303,12.4359997 C144.82814,13.5645578 145.016233,15.0066042 145.016233,16.7307902 C145.016233,18.4549762 144.82814,19.8970227 144.483303,21.0255808 C143.699582,23.4394412 141.975396,24.6620458 139.342093,24.6620458 C137.461163,24.6620458 136.144512,24.0664179 135.360791,22.906511 L135.329442,22.906511 L135.329442,29.6465107 C135.329442,29.8659526 135.235396,29.9599991 135.015954,29.9599991 Z M137.931396,20.9628831 C139.154,20.9628831 139.937721,20.4299529 140.282559,19.3327436 C140.470652,18.7371157 140.564698,17.8593483 140.564698,16.7307902 C140.564698,15.6022321 140.470652,14.7244647 140.282559,14.1288368 C139.937721,13.0316276 139.154,12.4986974 137.931396,12.4986974 C136.708791,12.4986974 135.956419,13.0316276 135.611582,14.1288368 C135.423489,14.7244647 135.329442,15.6022321 135.329442,16.7307902 C135.329442,17.8593483 135.423489,18.7371157 135.611582,19.3327436 C135.956419,20.4299529 136.74014,20.9628831 137.931396,20.9628831 Z" id="boostcamp-copy"></path>
                </g>
            </g>
        </g>
    </g>
</svg>